<?xml version="1.0" encoding="utf-8"?>
<!-- Generator: Adobe Illustrator 19.0.0, SVG Export Plug-In . SVG Version: 6.00 Build 0)  -->
<svg version="1.1" id="Layer_1" xmlns="http://www.w3.org/2000/svg" xmlns:xlink="http://www.w3.org/1999/xlink" x="0px" y="0px"
	 viewBox="-133 179.7 232 234.6" style="enable-background:new -133 179.7 232 234.6;" xml:space="preserve">
<style type="text/css">
	.st0{fill:#FFFFFF;}
</style>
<g>
	<path class="st0" d="M-86,244.6l-3.7,2.7c-2.1-2.5-4.5-4.4-7.4-5.6c-2.9-1.3-6-1.9-9.4-1.9c-3.8,0-7.2,0.8-10.4,2.5
		c-3.2,1.7-5.7,3.9-7.5,6.8c-1.8,2.8-2.6,6-2.6,9.6c0,5.4,2,9.8,5.9,13.4c3.9,3.6,8.9,5.4,14.9,5.4c6.6,0,12.1-2.4,16.6-7.2l3.7,2.6
		c-2.3,2.8-5.3,5-8.8,6.5c-3.5,1.5-7.4,2.3-11.8,2.3c-8.2,0-14.7-2.6-19.5-7.7c-4-4.3-6-9.5-6-15.7c0-6.4,2.4-11.8,7.2-16.2
		c4.8-4.4,10.9-6.6,18.2-6.6c4.4,0,8.4,0.8,11.9,2.5C-91.1,239.4-88.2,241.7-86,244.6"/>
	<polygon class="st0" points="-78.9,236.5 -51.9,236.5 -51.9,240.8 -74.2,240.8 -74.2,254.6 -52.1,254.6 -52.1,258.9 -74.2,258.9 
		-74.2,276.1 -52.1,276.1 -52.1,280.4 -78.9,280.4 	"/>
	<polygon class="st0" points="-44.7,280.4 -44.7,236.5 -43.7,236.5 -12.4,270.1 -12.4,236.5 -7.8,236.5 -7.8,280.4 -8.8,280.4 
		-39.9,247.2 -39.9,280.4 	"/>
	<polygon class="st0" points="0.6,240.8 0.6,236.5 26.5,236.5 26.5,240.8 16,240.8 16,280.4 11.2,280.4 11.2,240.8 	"/>
	<polygon class="st0" points="72,236.5 99,236.5 99,240.8 76.7,240.8 76.7,254.6 98.8,254.6 98.8,258.9 76.7,258.9 76.7,276.1 
		98.8,276.1 98.8,280.4 72,280.4 	"/>
	<path class="st0" d="M35,236.5h9.4c5.2,0,8.8,0.2,10.6,0.6c2.8,0.6,5.1,1.9,6.8,3.9c1.7,2,2.6,4.4,2.6,7.2c0,2.4-0.6,4.5-1.8,6.3
		c-1.2,1.8-2.9,3.2-5.2,4.1c-2.2,0.9-5.3,1.4-9.3,1.4l16.9,20.4h-5.8L42.4,260h-2.7v20.4H35L35,236.5L35,236.5z M39.7,240.8v14.9
		l8.1,0.1c3.1,0,5.5-0.3,6.9-0.8c1.5-0.6,2.7-1.4,3.5-2.7c0.9-1.2,1.3-2.6,1.3-4.1c0-1.5-0.4-2.8-1.3-4c-0.9-1.2-2-2.1-3.4-2.6
		c-1.4-0.5-3.7-0.8-6.9-0.8L39.7,240.8L39.7,240.8z"/>
	<path class="st0" d="M-129.9,224.8v-44h9.8c7,0,12.2,0.5,15.3,1.6c4.6,1.5,8.1,4.1,10.7,7.8c2.6,3.7,3.9,8.1,3.9,13.2
		c0,4.4-1,8.3-3.1,11.6c-2,3.3-4.7,5.8-7.9,7.4c-3.2,1.6-7.8,2.4-13.7,2.4L-129.9,224.8L-129.9,224.8z M-125.3,220.6h5.4
		c6.5,0,11-0.4,13.5-1.1c3.5-1.1,6.3-3,8.4-5.8c2-2.8,3-6.2,3-10.3c0-4.2-1.1-7.9-3.3-10.9c-2.2-3-5.3-5.1-9.2-6.2
		c-2.9-0.8-7.8-1.3-14.6-1.3h-3.3V220.6z"/>
	<polygon class="st0" points="-81.5,180.8 -54.5,180.8 -54.5,185.1 -76.8,185.1 -76.8,198.9 -54.7,198.9 -54.7,203.2 -76.8,203.2 
		-76.8,220.4 -54.7,220.4 -54.7,224.8 -81.5,224.8 	"/>
	<path class="st0" d="M-47.8,216.6l4-2.2c2.8,4.8,6.1,7.3,9.8,7.3c1.6,0,3.1-0.3,4.5-1c1.4-0.7,2.4-1.6,3.2-2.8
		c0.7-1.2,1.1-2.4,1.1-3.7c0-1.5-0.5-2.9-1.6-4.3c-1.5-2-4.2-4.3-8.1-7c-3.9-2.8-6.4-4.8-7.3-6c-1.7-2.1-2.5-4.3-2.5-6.7
		c0-1.9,0.5-3.7,1.5-5.2c1-1.6,2.4-2.8,4.1-3.7c1.8-0.9,3.7-1.4,5.8-1.4c2.2,0,4.3,0.5,6.2,1.6c1.9,1,4,2.9,6.1,5.6l-3.8,2.7
		c-1.8-2.2-3.3-3.6-4.5-4.3c-1.2-0.7-2.6-1-4.1-1c-1.9,0-3.5,0.5-4.7,1.6c-1.2,1.1-1.8,2.4-1.8,4c0,1,0.2,1.9,0.6,2.8
		c0.4,0.9,1.2,1.9,2.3,2.9c0.6,0.6,2.6,2,6.1,4.4c4.1,2.8,6.9,5.3,8.4,7.5c1.5,2.2,2.3,4.4,2.3,6.6c0,3.2-1.3,6-3.9,8.3
		c-2.6,2.4-5.7,3.5-9.4,3.5c-2.9,0-5.5-0.7-7.8-2.1C-43.7,222.3-45.9,219.9-47.8,216.6"/>
	<rect x="-12.4" y="180.8" class="st0" width="4.7" height="44"/>
	<path class="st0" d="M49,188.2l-3.7,3.2c-2.6-2.4-5.5-4.2-8.6-5.5c-3.1-1.3-6.2-1.9-9.1-1.9c-3.7,0-7.2,0.8-10.6,2.5
		c-3.3,1.7-5.9,4-7.8,6.9c-1.8,2.9-2.8,5.9-2.8,9.2c0,3.3,0.9,6.5,2.8,9.4c1.9,3,4.5,5.3,7.9,7c3.4,1.7,7,2.5,11,2.5
		c4.8,0,8.9-1.3,12.3-3.8c3.4-2.5,5.3-5.9,6-9.9h-15v-4.2h20.3c0,6.8-2.2,12.2-6.5,16.2c-4.3,4-10,6-17.2,6
		c-8.7,0-15.6-2.8-20.7-8.3c-3.9-4.3-5.9-9.2-5.9-14.8c0-4.2,1.1-8,3.4-11.6c2.2-3.6,5.3-6.4,9.2-8.4c3.9-2,8.3-3,13.3-3
		c4,0,7.7,0.7,11.3,2C42.2,183.1,45.6,185.2,49,188.2"/>
	<polygon class="st0" points="61.6,224.8 61.6,180.8 62.6,180.8 93.9,214.4 93.9,180.8 98.6,180.8 98.6,224.8 97.5,224.8 
		66.4,191.5 66.4,224.8 	"/>
	<path class="st0" d="M-120.2,394.9c-2.6-1.8-4.1-2.9-4.5-3.3c-0.8-0.8-1.4-1.5-1.7-2.2c-0.3-0.7-0.5-1.4-0.5-2.1
		c0-1.2,0.5-2.2,1.4-3c0.9-0.8,2.1-1.2,3.5-1.2c1.1,0,2.1,0.3,3,0.8c0.9,0.5,2.1,1.6,3.4,3.2l2.9-2c-1.6-2.1-3.1-3.5-4.6-4.2
		c-1.4-0.8-3-1.2-4.7-1.2c-1.6,0-3,0.3-4.3,1c-1.3,0.7-2.4,1.6-3.1,2.8c-0.7,1.2-1.1,2.5-1.1,3.9c0,1.8,0.6,3.5,1.9,5
		c0.7,0.9,2.5,2.4,5.5,4.5c2.9,2.1,4.9,3.8,6,5.3c0.8,1.1,1.2,2.1,1.2,3.2c0,1-0.3,1.9-0.8,2.7c-0.5,0.9-1.3,1.5-2.4,2.1
		c-1,0.5-2.1,0.8-3.3,0.8c-2.8,0-5.2-1.8-7.3-5.4l-3,1.7c1.5,2.5,3.1,4.3,4.8,5.3c1.7,1.1,3.7,1.6,5.8,1.6c2.8,0,5.1-0.9,7.1-2.6
		c1.9-1.8,2.9-3.8,2.9-6.2c0-1.6-0.6-3.3-1.7-4.9C-115.1,398.9-117.2,397-120.2,394.9"/>
	<rect x="-104.8" y="380.7" class="st0" width="3.5" height="32.8"/>
	<polygon class="st0" points="-90,380.7 -93.5,380.7 -93.5,413.5 -76.4,413.5 -76.4,410.3 -90,410.3 	"/>
	<polygon class="st0" points="-61,406 -72.6,380.7 -76.5,380.7 -61.4,413.5 -60.6,413.5 -45.3,380.7 -49.1,380.7 	"/>
	<path class="st0" d="M-29.8,380.7l-16.6,32.8h3.9l5.5-10.8h15.1l5.5,10.8h3.8L-29,380.7H-29.8z M-35.4,399.5l6-11.9l6,11.9H-35.4z"
		/>
	<polygon class="st0" points="-129.9,324.8 -129.9,292 -129.1,292 -105.7,317.1 -105.7,292 -102.2,292 -102.2,324.8 -103,324.8 
		-126.2,299.9 -126.2,324.8 	"/>
	<rect x="-94.2" y="292" class="st0" width="3.5" height="32.8"/>
	<polygon class="st0" points="-82.6,324.8 -82.6,292 -81.8,292 -58.4,317.1 -58.4,292 -54.9,292 -54.9,324.8 -55.7,324.8 
		-78.9,299.9 -78.9,324.8 	"/>
	<rect x="-46.9" y="292" class="st0" width="3.5" height="32.8"/>
	<path class="st0" d="M-115.5,336.3l16.4,32.8h-3.8l-5.5-10.8h-15.2l-5.5,10.8h-3.9l16.6-32.8H-115.5z M-116,343.2l-6,11.9h12
		L-116,343.2z"/>
	<polygon class="st0" points="-94.1,369.1 -94.1,336.3 -93.4,336.3 -70,361.4 -70,336.3 -66.5,336.3 -66.5,369.1 -67.3,369.1 
		-90.5,344.2 -90.5,369.1 	"/>
	<path class="st0" d="M-58.4,369.1v-32.8h7.3c5.3,0,9.1,0.4,11.5,1.2c3.4,1.1,6.1,3,8,5.8c1.9,2.8,2.9,6,2.9,9.8
		c0,3.3-0.8,6.2-2.3,8.7c-1.5,2.5-3.5,4.3-5.9,5.5c-2.4,1.2-5.8,1.8-10.2,1.8L-58.4,369.1L-58.4,369.1z M-55.1,366h4.1
		c4.9,0,8.2-0.3,10.1-0.8c2.6-0.8,4.7-2.2,6.2-4.3c1.5-2.1,2.3-4.6,2.3-7.7c0-3.2-0.8-5.9-2.5-8.1c-1.6-2.2-3.9-3.8-6.9-4.6
		c-2.2-0.6-5.8-0.9-10.9-0.9h-2.5L-55.1,366L-55.1,366z"/>
	<path class="st0" d="M-22.3,336.3h7c3.9,0,6.6,0.1,7.9,0.4c2.1,0.4,3.8,1.4,5.1,2.9c1.3,1.5,2,3.3,2,5.4c0,1.8-0.5,3.4-1.4,4.7
		c-0.9,1.4-2.2,2.4-3.9,3.1c-1.7,0.7-4,1-6.9,1.1l12.6,15.2h-4.3l-12.6-15.2h-2v15.2h-3.5C-22.3,369.1-22.3,336.3-22.3,336.3z
		 M-18.8,339.5v11.2l6.1,0c2.3,0,4.1-0.2,5.2-0.6c1.1-0.4,2-1.1,2.6-2c0.6-0.9,0.9-1.9,0.9-3.1c0-1.1-0.3-2.1-1-3
		c-0.6-0.9-1.5-1.5-2.5-1.9c-1-0.4-2.8-0.6-5.2-0.6H-18.8z"/>
	<path class="st0" d="M21.1,336.3l16.4,32.8h-3.8l-5.5-10.8H13l-5.5,10.8H3.6l16.6-32.8H21.1z M20.7,343.2l-6,11.9h12L20.7,343.2z"
		/>
	<path class="st0" d="M42.5,369.1v-32.8h7.3c5.3,0,9.1,0.4,11.4,1.2c3.4,1.1,6.1,3,8,5.8c1.9,2.8,2.9,6,2.9,9.8
		c0,3.3-0.8,6.2-2.3,8.7c-1.5,2.5-3.5,4.3-5.9,5.5c-2.4,1.2-5.8,1.8-10.2,1.8L42.5,369.1L42.5,369.1z M45.9,366h4.1
		c4.9,0,8.2-0.3,10.1-0.8c2.6-0.8,4.7-2.2,6.2-4.3c1.5-2.1,2.3-4.6,2.3-7.7c0-3.2-0.8-5.9-2.5-8.1c-1.6-2.2-3.9-3.8-6.9-4.6
		c-2.2-0.6-5.8-0.9-10.9-0.9h-2.5L45.9,366L45.9,366z"/>
	<polygon class="st0" points="78.5,336.3 98.6,336.3 98.6,339.5 82,339.5 82,349.8 98.5,349.8 98.5,353 82,353 82,365.9 98.5,365.9 
		98.5,369.1 78.5,369.1 	"/>
</g>
</svg>
